# AST/ASF file generated using VICON BodyLanguage
# -----------------------------------------------
:version 1.10
:name VICON
:units
  mass 1.0
  length 0.45
  angle deg
:documentation
   .ast/.asf automatically generated from VICON data using
   VICON BodyBuilder and BodyLanguage model FoxedUp or BRILLIANT.MOD
:root
   order TX TY TZ RX RY RZ
   axis XYZ
   position 0 0 0  
   orientation 0 0 0 
:bonedata
  begin
     id 1 
     name lhipjoint
     direction 0.662698 -0.695252 0.27831 
     length 2.53073 
     axis 0 0 0  XYZ
  end
  begin
     id 2 
     name lfemur
     direction 0.34202 -0.939693 0  
     length 7.16147  
     axis 0 0 20  XYZ
    dof rx ry rz
    limits (-160.0 20.0)
           (-70.0 70.0)
           (-60.0 70.0)
  end
  begin
     id 3 
     name ltibia
     direction 0.34202 -0.939693 0   
     length 7.63967   
     axis 0 0 20   XYZ
    dof rx
    limits (-10.0 170.0)
  end
  begin
     id 4 
     name lfoot
     direction 0.0938457 -0.257721 0.961651   
     length 1.89793   
     axis -90 7.62852e-016 20   XYZ
    dof rx rz
    limits (-45.0 90.0)
           (-70.0 20.0)
  end
  begin
     id 5 
     name ltoes
     direction -0.00116841 -0.0030592 0.999995   
     length 0.955649   
     axis -90 7.62852e-016 20   XYZ
    dof rx
    limits (-90.0 20.0)
  end
  begin
     id 6 
     name rhipjoint
     direction -0.649445 -0.705948 0.282592   
     length 2.49238  
     axis 0 0 0  XYZ 
  end
  begin
     id 7 
     name rfemur
     direction -0.34202 -0.939693 0   
     length 6.90728   
     axis 0 0 -20   XYZ
    dof rx ry rz
    limits (-160.0 20.0)
           (-70.0 70.0)
           (-70.0 60.0)
  end
  begin
     id 8 
     name rtibia
     direction -0.34202 -0.939693 0   
     length 7.72868   
     axis 0 0 -20   XYZ
    dof rx
    limits (-10.0 170.0)
 end
 begin
     id 9 
     name rfoot
     direction -0.0920068 -0.252865 0.963117   
     length 1.97476  
     axis -90 -7.62852e-016 -20   XYZ
    dof rx rz
    limits (-45.0 90.0)
           (-20.0 70.0)
  end
  begin
     id 10 
     name rtoes
     direction 0.000391322 0.00230649 0.999997   
     length 0.992641   
     axis -90 -7.62852e-016 -20   XYZ
    dof rx
    limits (-90.0 20.0)
  end
  begin
     id 11 
     name lowerback
     direction -0.00875327 0.998321 -0.0572635   
     length 2.20024   
     axis 0 0 0   XYZ
    dof rx ry rz
    limits (-20.0 45.0)
           (-30.0 30.0)
           (-30.0 30.0)
  end
  begin
     id 12 
     name upperback
     direction 0.00753931 0.999972 -0.000360425   
     length 2.20538   
     axis 0 0 0   XYZ
    dof rx ry rz
    limits (-20.0 45.0)
           (-30.0 30.0)
           (-30.0 30.0)
  end
  begin
     id 13 
     name thorax
     direction 0.0117767 0.999601 0.0256663   
     length 2.21508   
     axis 0 0 0   XYZ
    dof rx ry rz
    limits (-20.0 45.0)
           (-30.0 30.0)
           (-30.0 30.0)
  end
  begin
     id 14 
     name lowerneck
     direction 0.060228 0.994909 0.0807986   
     length 1.7607   
     axis 0 0 0   XYZ
    dof rx ry rz
    limits (-20.0 45.0)
           (-30.0 30.0)
           (-30.0 30.0)
  end
  begin
     id 15 
     name upperneck
     direction -0.0563647 0.959594 -0.275685   
     length 1.75612   
     axis 0 0 0   XYZ
    dof rx ry rz
    limits (-20.0 45.0)
           (-30.0 30.0)
           (-30.0 30.0)
  end
  begin
     id 16
     name head
     direction -0.0161544 0.99458 -0.102714  
     length 1.79288  
     axis 0 0 0   XYZ
    dof rx ry rz
    limits (-20.0 45.0)
           (-30.0 30.0)
           (-30.0 30.0)
  end
  begin
     id 17 
     name lclavicle
     direction 0.93913 0.332189 -0.087669  
     length 3.52087  
     axis 0 0 0   XYZ
    dof ry rz
    limits (-20.0 10.0)
           (0.0 20.0)
  end
  begin
     id 18 
     name lhumerus
     direction 1 -4.48974e-011 -2.70836e-027   
     length 5.35289   
     axis -180 -30 -90   XYZ
    dof rx ry rz
    limits (-60.0 90.0)
           (-90.0 90.0)
           (-90.0 90.0)
  end
  begin
     id 19
     name lradius
     direction 1 -4.48961e-011 -9.76021e-027   
     length 3.27727   
     axis -180 -30 -90   XYZ
    dof rx
    limits (-10.0 170.0)
  end
  begin
     id 20
     name lwrist
     direction 1 -4.49103e-011 -2.23668e-026   
     length 1.63864   
     axis 1.44924e-014 90 90   XYZ
    dof ry
    limits (-180.0 0.0)
 end
  begin
     id 21 
     name lhand
     direction 1 3.0697e-005 0.000161777   
     length 0.54443   
     axis 2.85318e-014 90 90   XYZ
    dof rx rz
    limits (-90.0 90.0)
           (-45.0 45.0)
  end
  begin
     id 22 
     name lfingers
     direction 1 -4.49027e-011 -8.9447e-026   
     length 0.438912   
     axis 5.70628e-014 90 90   XYZ
    dof rx
    limits (0.0 90.0)
  end
  begin
     id 23
     name lthumb
     direction 0.707058 2.6516e-005 0.707156   
     length 0.630274   
     axis -90 45 -3.53137e-014   XYZ
    dof rx rz
    limits (-45.0 45.0)
           (-45.0 45.0)
  end
  begin
     id 24 
     name rclavicle
     direction -0.95274 0.284984 -0.105215   
     length 3.43401  
     axis 0 0 0   XYZ 
    dof ry rz
    limits (-10.0 20.0)
           (-20.0 0.0)
  end
  begin
     id 25 
     name rhumerus
     direction -0.999999 -0.000575019 -0.00106829  
     length 5.52077   
     axis -180 30 90   XYZ
    dof rx ry rz
    limits (-90.0 60.0)
           (-90.0 90.0)
           (-90.0 90.0)
  end
  begin
     id 26 
     name rradius
     direction -1 -4.4879e-011 -6.35415e-027   
     length 3.32364   
     axis -180 30 90   XYZ
    dof rx
    limits (-10.0 170.0)
  end
  begin
     id 27 
     name rwrist
     direction -1 -4.49048e-011 -9.98542e-027   
     length 1.66182   
     axis 6.32482e-015 -90 -90   XYZ
    dof ry
    limits (-180.0 0.0)
  end
  begin
     id 28
     name rhand
     direction -1 -4.48978e-011 -1.99771e-026   
     length 0.732235   
     axis 1.27479e-014 -90 -90   XYZ
    dof rx rz
    limits (-90.0 90.0)
           (-45.0 45.0)
  end
  begin
     id 29
     name rfingers
     direction -1 -4.49144e-011 -3.99245e-026   
     length 0.590347   
     axis 2.5496e-014 -90 -90   XYZ
    dof rx
    limits (0.0 90.0)
  end
  begin
     id 30
     name rthumb
     direction -0.707107 -6.35121e-011 0.707107   
     length 0.847624   
     axis -90 -45 -2.82974e-014   XYZ
    dof rx rz
    limits (-45.0 45.0)
           (-45.0 45.0)
  end
:hierarchy
  begin
    root lhipjoint rhipjoint lowerback
    lhipjoint lfemur
    lfemur ltibia
    ltibia lfoot
    lfoot ltoes
    rhipjoint rfemur
    rfemur rtibia
    rtibia rfoot
    rfoot rtoes
    lowerback upperback
    upperback thorax
    thorax lowerneck lclavicle rclavicle
    lowerneck upperneck
    upperneck head
    lclavicle lhumerus
    lhumerus lradius
    lradius lwrist
    lwrist lhand lthumb
    lhand lfingers
    rclavicle rhumerus
    rhumerus rradius
    rradius rwrist
    rwrist rhand rthumb
    rhand rfingers
  end

#!OML:ASF G:\Work\Work\Patient Classification 1\Elijah\terrain1\Elijah.ASF
:FULLY-SPECIFIED
:DEGREES
3851
root 5.97662 20.5955 20.4404 724.483 -22.574 -6.08215
lowerback 5.16614 0.0488611 2.18732
upperback 0.337456 0.252663 2.61415
thorax -2.5526 0.110584 1.44531
lowerneck -7.75781 14.6494 13.6196
upperneck 32.3326 23.439 -13.3878
head 16.2853 10.2272 -3.64687
rclavicle -4.68759e-014 2.83268e-014
rhumerus -45.2483 -0.622106 -80.5754
rradius 35.2262
rwrist -3.12647
rhand -11.8169 22.7342
rfingers 7.12502
rthumb 14.2335 -6.75813
lclavicle -4.68759e-014 2.83268e-014
lhumerus -43.255 4.84807 81.6767
lradius 39.5687
lwrist 4.77752
lhand -13.981 26.1137
lfingers 7.12502
lthumb 12.1474 55.7411
rfemur -15.8218 -12.3987 12.81
rtibia 84.1467
rfoot 0.751679 -1.14647
rtoes -21.4195
lfemur -22.8391 0.445419 -21.9305
ltibia 40.4332
lfoot -17.6855 -2.58088
ltoes 5.29545
3852
root 5.95249 20.5848 20.52 724.248 -21.8925 -6.19809
lowerback 5.07834 0.125844 2.37775
upperback 0.618667 0.350369 2.54512
thorax -2.21296 0.159396 1.25973
lowerneck -7.06723 14.6366 13.8869
upperneck 31.6072 23.6523 -14.3169
head 16.0334 10.3241 -4.06024
rclavicle 3.85953e-014 1.19271e-015
rhumerus -44.854 -0.40447 -81.0475
rradius 35.2043
rwrist -2.29165
rhand -11.0481 22.8998
rfingers 7.12502
rthumb 14.9741 -6.53881
lclavicle 3.85953e-014 1.19271e-015
lhumerus -42.5861 5.12491 81.3325
lradius 40.9518
lwrist 4.89404
lhand -14.3289 25.6388
lfingers 7.12502
lthumb 11.8119 55.2857
rfemur -16.7341 -11.9774 13.4267
rtibia 85.4194
rfoot 0.418439 -0.927865
rtoes -19.391
lfemur -22.2725 -0.157132 -21.8176
ltibia 40.285
lfoot -18.4813 -2.98511
ltoes 11.8438
3853
root 5.93931 20.58 20.6311 723.692 -20.8792 -4.38295
lowerback 4.47925 0.0239484 0.905465
upperback 0.677513 0.109346 1.99252
thorax -1.81735 0.0514187 1.53181
lowerneck -6.18698 14.7414 14.6614
upperneck 30.8912 24.1186 -15.6029
head 15.9676 10.5633 -4.64709
rclavicle -4.38817e-014 -1.28216e-014
rhumerus -44.9073 0.166747 -81.5877
rradius 35.4693
rwrist -1.57053
rhand -10.4456 23.1862
rfingers 7.12502
rthumb 15.5545 -6.20823
lclavicle -4.38817e-014 -1.28216e-014
lhumerus -42.3557 5.41359 81.0066
lradius 42.6043
lwrist 5.0133
lhand -14.6028 25.6496
lfingers 7.12502
lthumb 11.5478 55.3115
rfemur -17.7653 -12.4314 11.5597
rtibia 86.7518
rfoot -0.186731 0.129461
rtoes -20.3138
lfemur -21.7653 -1.27019 -23.8473
ltibia 40.0007
lfoot -18.4786 -2.67524
ltoes 7.07776
3854
root 5.89648 20.5761 20.7067 723.558 -20.6628 -4.32233
lowerback 4.75931 0.149447 0.421045
upperback 0.556314 0.261359 2.01962
thorax -2.10405 0.131825 1.8228
lowerneck -6.47227 14.8031 14.5815
upperneck 31.2559 24.1889 -15.3186
head 16.1604 10.5802 -4.48709
rclavicle 2.84666e-014 -9.0447e-015
rhumerus -45.2329 0.591772 -81.9412
rradius 35.7655
rwrist -0.639267
rhand -9.89664 23.8583
rfingers 7.12502
rthumb 16.0832 -5.49427
lclavicle 2.84666e-014 -9.0447e-015
lhumerus -42.4445 5.67816 80.6926
lradius 44.2764
lwrist 5.35106
lhand -14.8392 25.5529
lfingers 7.12502
lthumb 11.3198 55.2275
rfemur -19.4213 -11.5822 12.3507
rtibia 87.9971
rfoot -0.432689 -0.0394168
rtoes -22.2484
lfemur -21.311 -1.47332 -23.8654
ltibia 39.6906
lfoot -18.0793 -2.2439
ltoes 2.17313
3855
root 5.88288 20.5632 20.8208 723.238 -19.5752 -4.14117
lowerback 3.97087 -0.0436125 0.50693
upperback 1.24647 -0.0216515 1.90959
thorax -0.946373 -0.01512 1.67531
lowerneck -7.27168 14.9117 14.3262
upperneck 31.0895 24.3506 -15.4548
head 16.2817 10.5571 -4.39684
rclavicle 1.22563e-014 7.42958e-015
rhumerus -44.2274 0.591682 -82.1569
rradius 35.6723
rwrist 0.279603
rhand -9.82514 24.5886
rfingers 7.12502
rthumb 16.152 -4.75834
lclavicle 1.22563e-014 7.42958e-015
lhumerus -41.2303 6.04364 80.5618
lradius 45.595
lwrist 6.158
lhand -15.2689 25.1478
lfingers 7.12502
lthumb 10.9054 54.8446
rfemur -19.8601 -11.7201 12.4132
rtibia 88.8317
rfoot -0.576777 0.0509496
rtoes -23.1625
lfemur -20.3519 -2.34266 -24.2626
ltibia 39.303
lfoot -18.1995 -1.99393
ltoes 0.201273
3856
root 5.87904 20.5494 20.9547 722.86 -18.6155 -3.68504
lowerback 4.4841 -0.312735 0.177975
upperback 0.589304 -0.37284 1.92405
thorax -1.89669 -0.183592 1.89942
lowerneck -6.91173 14.9155 13.2447
upperneck 32.1472 24.1901 -13.8152
head 16.1717 10.5259 -3.65667
rclavicle 1.25483e-015 8.44835e-016
rhumerus -45.5741 1.57778 -82.3226
rradius 35.8112
rwrist 0.694069
rhand -10.0341 25.1924
rfingers 7.12502
rthumb 15.9508 -4.17076
lclavicle 1.25483e-015 8.44835e-016
lhumerus -42.5444 6.42877 80.444
lradius 47.1898
lwrist 7.51569
lhand -15.8997 25.1455
lfingers 7.12502
lthumb 10.297 54.8734
rfemur -20.0972 -11.7901 11.9811
rtibia 89.4653
rfoot -0.621176 0.346864
rtoes -23.3434
lfemur -19.3789 -3.17108 -25.0097
ltibia 39.1053
lfoot -18.6909 -2.14062
ltoes 2.29493
3857
root 5.86177 20.5288 20.9839 722.656 -18.2405 -2.84119
lowerback 4.803 -0.154796 -0.845473
upperback 0.501159 -0.213923 1.74206
thorax -2.16777 -0.0940851 2.28068
lowerneck -5.19992 15.0671 14.3255
upperneck 30.8389 24.9082 -15.846
head 15.8887 10.9154 -4.58733
rclavicle -2.22763e-014 1.21259e-014
rhumerus -45.4784 1.68522 -82.427
rradius 35.7872
rwrist 1.02795
rhand -10.0504 25.5372
rfingers 7.12502
rthumb 15.9351 -3.8273
lclavicle -2.22763e-014 1.21259e-014
lhumerus -42.2008 6.44473 80.5171
lradius 48.6078
lwrist 8.7865
lhand -16.437 25.3073
lfingers 7.12502
lthumb 9.77854 55.0602
rfemur -22.1408 -11.2753 11.8156
rtibia 90.6962
rfoot -0.588449 0.184559
rtoes -24.3968
lfemur -19.3843 -3.5707 -25.8027
ltibia 38.9425
lfoot -18.5263 -2.32593
ltoes 2.69602
3858
root 5.85315 20.5243 21.0811 722.562 -17.3912 -2.82048
lowerback 4.61158 -0.232755 -0.72195
upperback 0.619205 -0.312969 1.74189
thorax -1.93534 -0.147304 2.21521
lowerneck -5.13091 15.1355 14.425
upperneck 30.6856 25.1758 -16.3325
head 15.9814 11.0058 -4.74112
rclavicle -3.43152e-014 6.95746e-015
rhumerus -45.3156 1.66743 -82.3697
rradius 35.7817
rwrist 1.45593
rhand -10.1814 25.7286
rfingers 7.12502
rthumb 15.8089 -3.64595
lclavicle -3.43152e-014 6.95746e-015
lhumerus -41.8343 6.59227 80.5808
lradius 50.0565
lwrist 9.9292
lhand -16.9609 25.3432
lfingers 7.12502
lthumb 9.27309 55.1192
rfemur -22.9674 -11.1196 12.2036
rtibia 91.3138
rfoot -1.41591 0.0543114
rtoes -26.7295
lfemur -18.8995 -4.26379 -25.9138
ltibia 38.9157
lfoot -18.6655 -2.84693
ltoes 6.35736
3859
root 5.8229 20.5252 21.1936 722.493 -17.0193 -2.66954
lowerback 4.14521 -0.222859 -1.06045
upperback 0.840969 -0.317727 1.74234
thorax -1.44447 -0.153796 2.40176
lowerneck -5.84191 15.2725 14.2196
upperneck 30.8754 25.4013 -16.2808
head 16.2458 11.0231 -4.58013
rclavicle -2.6867e-014 -1.45113e-014
rhumerus -45.1793 1.73555 -82.4039
rradius 35.9856
rwrist 1.71954
rhand -10.6474 25.9034
rfingers 7.12502
rthumb 15.3601 -3.50605
lclavicle -2.6867e-014 -1.45113e-014
lhumerus -41.3431 6.76535 80.5358
lradius 51.4072
lwrist 11.0426
lhand -17.7899 25.158
lfingers 7.12502
lthumb 8.47311 54.968
rfemur -24.1399 -10.4722 12.6678
rtibia 91.9337
rfoot -1.8555 -0.377694
rtoes -27.2342
lfemur -18.4191 -4.4782 -26.0783
ltibia 38.8561
lfoot -18.6031 -3.06195
ltoes 5.58524
